<svg width="24" height="24" viewBox="0 0 24 24" fill="none" xmlns="http://www.w3.org/2000/svg">
<g clip-path="url(#clip0_2455_3751)">
<path d="M16.311 4.4175C16.2009 3.44334 16.025 2.93496 15.7116 2.53008C15.6446 2.545 15.5751 2.54515 15.5081 2.53051C15.4411 2.51587 15.3783 2.48681 15.3242 2.44545L14.1937 1.73858C14.0777 1.64858 14.0028 1.51722 13.9854 1.37327C13.9319 1.35379 13.8772 1.33552 13.8206 1.31787V2.2494H9.18309V1.31604C9.12712 1.3337 9.0724 1.35196 9.01892 1.37144C9.00157 1.5154 8.92666 1.64675 8.81061 1.73675L7.67952 2.44423C7.62538 2.48576 7.56244 2.51492 7.4953 2.52956C7.42817 2.5442 7.35854 2.54396 7.29151 2.52886C6.9806 2.93496 6.80214 3.44213 6.69207 4.41628C6.39982 7.00022 6.60315 11.0624 6.59072 12.0628C6.52853 17.3993 6.77415 20.6475 7.11926 21.7726C7.18518 21.9863 7.34872 22.1623 7.57506 22.3084C7.63096 22.2824 7.69227 22.2695 7.75414 22.2707C8.15708 22.2707 8.35358 22.5398 8.79942 22.463C9.09354 22.4119 9.19366 22.6609 9.22723 22.8369C9.49151 22.8795 9.7564 22.9106 10.0082 22.9343C10.0286 22.9042 10.0563 22.8795 10.0889 22.8624C10.1215 22.8454 10.1579 22.8366 10.1948 22.8369H12.8064C12.8433 22.8367 12.8797 22.8455 12.9123 22.8625C12.9448 22.8795 12.9726 22.9042 12.993 22.9343C13.1795 22.9172 13.3766 22.8947 13.5738 22.8673C13.6017 22.692 13.695 22.4089 14.009 22.463C14.4549 22.5398 14.6514 22.2707 15.0543 22.2707C15.1041 22.2684 15.1539 22.2762 15.2004 22.2937C15.247 22.3112 15.2893 22.338 15.3248 22.3723C15.6065 22.2152 15.8111 22.0186 15.8844 21.7726C16.2302 20.6481 16.4783 17.3993 16.4136 12.0628C16.3999 11.0636 16.6033 7.00143 16.311 4.4175Z" fill="url(#paint0_radial_2455_3751)"/>
<path d="M13.8206 2.24752V1.31599C12.498 0.89467 10.5063 0.89467 9.18311 1.31599V2.24752H13.8206Z" fill="url(#paint1_linear_2455_3751)"/>
<path d="M16.0232 4.57702C15.8441 2.95566 15.4822 2.8272 14.593 2.06614C13.3854 1.03476 9.61841 1.03476 8.4127 2.06614C7.52287 2.8272 7.16035 2.95566 6.98251 4.57702C6.70767 7.06537 6.88178 10.9748 6.86996 11.9373C6.80778 17.0742 7.06024 20.2012 7.38483 21.2837C7.75792 22.5312 11.5031 22.4631 11.5031 22.4631C11.5031 22.4631 15.2484 22.5312 15.6221 21.2837C15.9467 20.2012 16.1973 17.0742 16.1363 11.9373C16.1245 10.9778 16.2974 7.06537 16.0232 4.57702Z" fill="url(#paint2_radial_2455_3751)"/>
<path d="M9.65757 9.9427C9.12351 10.0163 8.60194 10.1597 8.10675 10.3689L8.16893 10.7245C8.16893 10.7245 8.7808 10.4018 9.73841 10.2581C10.5648 10.1363 12.4421 10.1363 13.2685 10.2581C14.2255 10.4018 14.838 10.7245 14.838 10.7245L14.9001 10.3689C14.405 10.1597 13.8834 10.0163 13.3493 9.9427C12.4831 9.81728 10.5213 9.81728 9.65757 9.9427Z" fill="url(#paint3_linear_2455_3751)"/>
<path d="M7.86488 7.27231C8.39707 7.03318 8.95387 6.8505 9.52576 6.72739C10.7134 6.46254 12.291 6.46254 13.4787 6.72739C14.0506 6.8505 14.6074 7.03318 15.1396 7.27231C15.236 7.30731 15.3245 7.36047 15.4001 7.42878V7.41782C15.4001 7.41782 15.4567 7.1615 15.4206 7.0927C15.3846 7.0239 15.2963 6.97641 15.1383 6.90517C14.606 6.6666 14.0492 6.48414 13.4774 6.36087C12.2898 6.09602 10.7122 6.09602 9.52452 6.36087C8.95275 6.48414 8.39599 6.6666 7.86363 6.90517C7.7032 6.97641 7.61491 7.03242 7.58133 7.0927C7.54775 7.15297 7.60123 7.41782 7.60123 7.41782V7.42878C7.67737 7.35967 7.76707 7.30643 7.86488 7.27231Z" fill="url(#paint4_linear_2455_3751)"/>
<path d="M9.65755 9.94276C10.5213 9.82099 12.4831 9.82099 13.3468 9.94276C13.8809 10.0164 14.4024 10.1597 14.8976 10.369L15.4001 7.43128C15.3245 7.36296 15.236 7.30981 15.1395 7.2748C14.6073 7.03568 14.0505 6.853 13.4786 6.72989C12.291 6.46504 10.7134 6.46504 9.52572 6.72989C8.95383 6.853 8.39703 7.03568 7.86484 7.2748C7.76836 7.30937 7.67997 7.36258 7.60492 7.43128L8.10673 10.369C8.60191 10.1597 9.12349 10.0164 9.65755 9.94276Z" fill="url(#paint5_linear_2455_3751)"/>
<path d="M14.647 18.43C14.6215 18.3027 14.5923 18.1749 14.5581 18.0476C14.5581 18.0476 14.514 18.0707 14.4244 18.1085C14.0973 18.243 13.1559 18.5566 11.5019 18.5566C9.98649 18.5566 8.9381 18.2303 8.57931 18.1006C8.49101 18.0683 8.44437 18.0482 8.44437 18.0482C8.41142 18.17 8.38219 18.2948 8.35732 18.4178C8.21014 19.1961 8.16832 19.9899 8.23295 20.7789C8.75135 21.0005 9.29372 21.1639 9.84969 21.266C10.5816 21.4036 12.4228 21.4036 13.1547 21.266C13.7106 21.1639 14.253 21.0005 14.7714 20.7789C14.8352 19.994 14.7933 19.2042 14.647 18.43ZM14.5432 20.4714C14.0634 20.6918 13.5584 20.8553 13.039 20.9585C12.3581 21.0961 10.6456 21.0961 9.96534 20.9585C9.44595 20.8553 8.94098 20.6918 8.46116 20.4714C8.41138 19.8014 8.43221 19.1281 8.52334 18.4622C9.49597 18.7123 10.4981 18.8352 11.5037 18.8275C12.9899 18.8275 13.9655 18.6278 14.4885 18.4787C14.5757 19.1394 14.594 19.8071 14.5432 20.4714Z" fill="url(#paint6_linear_2455_3751)"/>
<path d="M8.5215 18.4629C8.43037 19.1288 8.40953 19.802 8.45932 20.4721C8.93914 20.6924 9.44411 20.856 9.9635 20.9592C10.6438 21.0968 12.3563 21.0968 13.0372 20.9592C13.5566 20.856 14.0615 20.6924 14.5413 20.4721C14.5911 19.8076 14.5717 19.1399 14.4835 18.4793C13.9618 18.6285 12.9862 18.8282 11.4988 18.8282C10.4942 18.8356 9.49312 18.7127 8.5215 18.4629Z" fill="url(#paint7_linear_2455_3751)"/>
<path d="M7.41152 13.734L8.07189 13.9611L7.9581 10.9236L7.32757 7.32471C7.32757 7.32471 7.27347 8.24772 7.32757 9.57074C7.36239 10.4073 7.46002 11.5592 7.45878 12.302C7.45691 13.0101 7.43204 13.488 7.41152 13.734Z" fill="url(#paint8_linear_2455_3751)"/>
<path d="M15.5934 13.734L14.9324 13.9611L15.0462 10.9236L15.6768 7.32471C15.6768 7.32471 15.7309 8.24772 15.6768 9.57074C15.6419 10.4073 15.5443 11.5592 15.5455 12.302C15.5474 13.0101 15.5679 13.4947 15.5934 13.734Z" fill="url(#paint9_linear_2455_3751)"/>
<path d="M7.39163 14.0146L8.07564 14.3081L8.15212 16.8476C8.15212 16.8476 8.08994 17.163 7.83686 17.6835C7.54522 18.2772 7.39101 18.4428 7.39101 18.4428C7.39101 18.4428 7.31639 14.9657 7.39163 14.0146Z" fill="url(#paint10_linear_2455_3751)"/>
<path d="M15.6127 14.0146L14.9287 14.3081L14.8522 16.8476C14.8522 16.8476 14.9144 17.163 15.1675 17.6835C15.4585 18.2772 15.6133 18.4428 15.6133 18.4428C15.6133 18.4428 15.6861 14.9657 15.6127 14.0146Z" fill="url(#paint11_linear_2455_3751)"/>
<path d="M7.67956 2.44413L8.81065 1.73848C8.9267 1.64848 9.0016 1.51712 9.01896 1.37317C8.72744 1.47037 8.45539 1.61644 8.21495 1.80484C7.8176 2.13666 7.51913 2.23651 7.29279 2.53058C7.35976 2.54525 7.42924 2.54509 7.49615 2.53014C7.56306 2.51518 7.62571 2.4858 7.67956 2.44413Z" fill="url(#paint12_radial_2455_3751)"/>
<path d="M14.1937 1.73847L15.3242 2.44412C15.3783 2.48549 15.4411 2.51454 15.5081 2.52918C15.5752 2.54382 15.6446 2.54367 15.7116 2.52875C15.4852 2.23468 15.1868 2.13483 14.7894 1.80301C14.549 1.6146 14.2769 1.46854 13.9854 1.37134C13.9938 1.44294 14.0165 1.51222 14.0522 1.57522C14.088 1.63822 14.136 1.6937 14.1937 1.73847Z" fill="url(#paint13_radial_2455_3751)"/>
<path d="M8.80072 22.4642C8.35487 22.5409 8.15838 22.2718 7.75544 22.2718C7.69357 22.2706 7.63226 22.2836 7.57635 22.3095C7.98613 22.5738 8.6036 22.7357 9.22853 22.838C9.19495 22.6621 9.09484 22.4131 8.80072 22.4642Z" fill="#F15A29"/>
<path d="M14.0072 22.4643C13.6963 22.4101 13.6017 22.6932 13.5719 22.8685C14.2118 22.779 14.8665 22.625 15.3211 22.3735C15.2856 22.3392 15.2433 22.3124 15.1967 22.2949C15.1502 22.2774 15.1004 22.2696 15.0506 22.2719C14.6483 22.2719 14.4518 22.541 14.0072 22.4643Z" fill="#F15A29"/>
<path style="mix-blend-mode:screen" d="M15.1395 7.27234C14.6073 7.03321 14.0505 6.85053 13.4787 6.72742C13.1725 6.6606 12.8624 6.6118 12.5503 6.5813C11.7164 7.50248 10.7283 9.17193 10.3242 9.88002C11.2948 9.82218 12.6634 9.84288 13.3468 9.94091C13.8809 10.0145 14.4025 10.1579 14.8976 10.3671L15.4001 7.42942C15.3245 7.36089 15.236 7.30752 15.1395 7.27234Z" fill="url(#paint14_linear_2455_3751)"/>
<path d="M11.5019 10.4907C9.08053 10.4341 8.26843 10.8852 8.26843 10.8852C8.26843 10.8852 8.29766 16.8988 8.48234 17.4961C8.6067 17.901 10.1333 18.08 11.1021 18.1536H11.9024C12.8711 18.08 14.3965 17.901 14.5215 17.4961C14.708 16.8988 14.736 10.8852 14.736 10.8852C14.736 10.8852 13.9233 10.4298 11.5019 10.4907Z" fill="url(#paint15_linear_2455_3751)"/>
<path d="M11.9241 22.2645C14.2758 22.1896 15.3167 21.5059 15.3167 21.5059L14.8516 20.9318C13.3835 21.7738 11.5019 21.6015 11.5019 21.6015C11.5019 21.6015 9.62024 21.7738 8.15274 20.9318L7.68762 21.5059C7.68762 21.5059 8.72855 22.1896 11.0803 22.2645C11.2046 22.2694 11.5019 22.2718 11.5019 22.2718C11.6617 22.2718 11.8016 22.2694 11.9241 22.2645Z" fill="url(#paint16_linear_2455_3751)"/>
<path style="mix-blend-mode:screen" d="M11.9241 22.2645C14.2758 22.1896 15.3167 21.5059 15.3167 21.5059L14.8516 20.9318C13.3835 21.7738 11.5019 21.6015 11.5019 21.6015C11.5019 21.6015 9.62024 21.7738 8.15274 20.9318L7.68762 21.5059C7.68762 21.5059 8.72855 22.1896 11.0803 22.2645C11.2046 22.2694 11.5019 22.2718 11.5019 22.2718C11.6617 22.2718 11.8016 22.2694 11.9241 22.2645Z" fill="url(#paint17_linear_2455_3751)"/>
<g style="mix-blend-mode:screen">
<path d="M8.80753 1.9303C8.80753 1.9303 7.34936 2.5428 7.19453 4.21955C7.03597 5.93284 7.0596 6.79558 7.0596 6.79558C7.0596 6.79558 7.55892 2.83991 8.80753 1.9303Z" fill="#474747"/>
</g>
<g style="mix-blend-mode:screen">
<path d="M14.205 1.9303C14.205 1.9303 15.6631 2.5428 15.818 4.21955C15.9765 5.93284 15.9535 6.79558 15.9535 6.79558C15.9535 6.79558 15.4536 2.83991 14.205 1.9303Z" fill="#474747"/>
</g>
<path d="M15.6488 7.55115C15.6488 7.55115 16.0269 7.62786 16.0356 7.95968C16.0443 8.2915 15.6575 8.96428 15.6488 8.53869C15.6401 8.11311 15.6146 7.679 15.6488 7.55115Z" fill="url(#paint18_linear_2455_3751)"/>
<path d="M16.9639 8.27874C16.8806 8.16367 16.1195 7.92135 16.1195 7.92135C15.9697 7.87082 15.918 8.0072 15.9006 8.12288L16.9919 8.46383C17.0012 8.43284 17.0036 8.40023 16.9987 8.36827C16.9939 8.33631 16.982 8.30576 16.9639 8.27874Z" fill="url(#paint19_radial_2455_3751)"/>
<path d="M15.9006 8.12292C15.8938 8.17011 15.8909 8.21775 15.8919 8.26539L16.9639 8.53877C16.976 8.51488 16.9854 8.48977 16.9919 8.46388L15.9006 8.12292Z" fill="url(#paint20_linear_2455_3751)"/>
<path d="M7.35373 7.52808C7.35373 7.52808 6.95141 7.60479 6.9427 7.93661C6.934 8.26843 7.3444 8.94181 7.35373 8.51562C7.36305 8.08943 7.3873 7.65593 7.35373 7.52808Z" fill="url(#paint21_linear_2455_3751)"/>
<path d="M6.88113 7.89885C6.88113 7.89885 6.12002 8.14238 6.03732 8.25563C6.01788 8.28497 6.00558 8.31829 6.00138 8.35302C5.99717 8.38775 6.00117 8.42296 6.01307 8.45594L7.10499 8.1162C7.08695 7.99443 7.03659 7.84588 6.88113 7.89885Z" fill="url(#paint22_radial_2455_3751)"/>
<path d="M6.01306 8.45595C6.01889 8.47703 6.02702 8.49745 6.03731 8.51683L7.10871 8.24346C7.11057 8.20101 7.10932 8.15849 7.10498 8.11621L6.01306 8.45595Z" fill="url(#paint23_linear_2455_3751)"/>
<path d="M6.60319 11.9099C6.57592 11.9106 6.55002 11.9217 6.53115 11.941C6.51227 11.9603 6.50196 11.9861 6.50246 12.0128V12.8652C6.50196 12.8919 6.51227 12.9177 6.53115 12.937C6.55002 12.9563 6.57592 12.9674 6.60319 12.9681V11.9099Z" fill="#595959"/>
<path d="M6.65356 16.1833C6.64003 16.1836 6.62669 16.1864 6.61429 16.1917C6.60189 16.1971 6.59069 16.2047 6.58133 16.2143C6.57197 16.2238 6.56463 16.2351 6.55974 16.2475C6.55484 16.2598 6.5525 16.273 6.55283 16.2862V17.1386C6.5525 17.1519 6.55484 17.1651 6.55972 17.1775C6.56461 17.1899 6.57194 17.2012 6.58129 17.2108C6.59065 17.2204 6.60184 17.2281 6.61424 17.2335C6.62664 17.2389 6.64001 17.2418 6.65356 17.2421V16.1833Z" fill="#595959"/>
<path d="M16.4012 11.9099C16.4285 11.9106 16.4544 11.9217 16.4732 11.941C16.4921 11.9603 16.5024 11.9861 16.5019 12.0128V12.8652C16.5024 12.8919 16.4921 12.9177 16.4732 12.937C16.4544 12.9563 16.4285 12.9674 16.4012 12.9681V11.9099Z" fill="#595959"/>
<path d="M16.3508 16.1833C16.3644 16.1836 16.3777 16.1864 16.3901 16.1917C16.4025 16.1971 16.4137 16.2047 16.4231 16.2143C16.4324 16.2238 16.4398 16.2351 16.4447 16.2475C16.4495 16.2598 16.4519 16.273 16.4516 16.2862V17.1386C16.4519 17.1519 16.4496 17.1651 16.4447 17.1775C16.4398 17.1899 16.4325 17.2012 16.4231 17.2108C16.4137 17.2204 16.4025 17.2281 16.3901 17.2335C16.3777 17.2389 16.3644 17.2418 16.3508 17.2421V16.1833Z" fill="#595959"/>
<path d="M12.8071 22.838H10.1955C10.1585 22.8378 10.1222 22.8466 10.0896 22.8636C10.057 22.8806 10.0293 22.9053 10.0089 22.9354C10.8291 23.0109 11.5013 22.9994 11.5013 22.9994C11.5013 22.9994 12.1722 23.0109 12.9936 22.9354C12.9732 22.9053 12.9455 22.8807 12.9129 22.8637C12.8804 22.8467 12.844 22.8378 12.8071 22.838Z" fill="url(#paint24_linear_2455_3751)"/>
<path style="mix-blend-mode:screen" d="M14.4854 18.4788C13.9637 18.6279 12.988 18.8276 11.5006 18.8276C11.1972 18.8276 10.9111 18.8167 10.6419 18.799C9.79 19.1917 9.27389 20.4265 9.15326 20.7418C9.4181 20.8292 9.68804 20.9009 9.96163 20.9568C10.6419 21.0944 12.3544 21.0944 13.0353 20.9568C13.5547 20.8536 14.0596 20.69 14.5395 20.4697C14.5903 19.806 14.5722 19.1389 14.4854 18.4788Z" fill="url(#paint25_linear_2455_3751)"/>
<path d="M12.9575 12.9705H10.0406V11.891H12.9575V12.9705ZM10.1867 12.8274H12.812V12.0304H10.1867V12.8274Z" fill="#3C2415"/>
<path d="M12.8748 12.453H10.1264V12.8853H12.8748V12.453Z" fill="#C96E00"/>
<path d="M12.8748 11.9629H10.1264V12.3952H12.8748V11.9629Z" fill="#FBB040"/>
<path d="M10.9584 12.5345H10.5965V12.6935H10.9584V12.5345Z" fill="#3C2415"/>
<path d="M10.5915 12.6953H10.2296V12.8542H10.5915V12.6953Z" fill="#3C2415"/>
<path d="M12.7685 12.6953H12.4066V12.8542H12.7685V12.6953Z" fill="#3C2415"/>
<path d="M11.6804 12.5437H11.3185V12.6971H10.9684V12.856H11.3303V12.7026H11.6748V12.8591H12.0367V12.7002H11.6804V12.5437Z" fill="#3C2415"/>
<path d="M12.4066 12.5376H12.0447V12.6965H12.4066V12.5376Z" fill="#3C2415"/>
<path d="M10.9584 12.1565H10.5965V12.3148H10.9584V12.1565Z" fill="#3C2415"/>
<path d="M10.5915 11.9957H10.2296V12.1546H10.5915V11.9957Z" fill="#3C2415"/>
<path d="M12.7685 11.9957H12.4066V12.1546H12.7685V11.9957Z" fill="#3C2415"/>
<path d="M11.6804 12.3056H11.3185V12.1522H10.9684V11.9933H11.3303V12.1473H11.6748V11.9908H12.0367V12.1498H11.6804V12.3056Z" fill="#3C2415"/>
<path d="M12.4066 12.1534H12.0447V12.3124H12.4066V12.1534Z" fill="#3C2415"/>
<path d="M12.9575 12.3538H10.0406V12.5054H12.9575V12.3538Z" fill="#66493A"/>
<path style="mix-blend-mode:color-dodge" d="M13.7721 12.1254C13.7721 12.4487 12.7561 12.7111 11.5025 12.7111C10.2489 12.7111 9.23346 12.4487 9.23346 12.1254C9.23346 11.8021 10.2495 11.5403 11.5025 11.5403C12.7554 11.5403 13.7721 11.8021 13.7721 12.1254Z" fill="url(#paint26_radial_2455_3751)"/>
<path style="mix-blend-mode:color-dodge" d="M13.7777 12.7745C13.7777 13.0357 12.7592 13.2475 11.5025 13.2475C10.2458 13.2475 9.22723 13.0357 9.22723 12.7745C9.22723 12.5133 10.2458 12.302 11.5025 12.302C12.7592 12.302 13.7777 12.5139 13.7777 12.7745Z" fill="url(#paint27_radial_2455_3751)"/>
<path d="M13.4451 2.70178H9.55871C9.387 2.70178 9.2478 2.83808 9.2478 3.0062V4.36028C9.2478 4.5284 9.387 4.6647 9.55871 4.6647H13.4451C13.6168 4.6647 13.756 4.5284 13.756 4.36028V3.0062C13.756 2.83808 13.6168 2.70178 13.4451 2.70178Z" fill="#3A3A3D"/>
<path d="M12.4526 4.07462H12.7884V3.05176H13.0838V4.07462H13.414V4.29685H12.4526V4.07462Z" fill="#FFDB1E"/>
<path d="M11.7643 3.29408H12.1417L12.2151 3.05054H12.526L12.1112 4.29562H11.9552H11.7972L11.3812 3.05054H11.6921L11.7643 3.29408ZM12.0752 3.5163H11.8308L11.9496 3.90231H11.9552L12.0752 3.5163Z" fill="#FFDB1E"/>
<path d="M10.8235 3.87674L10.6139 4.29685H10.2763L10.64 3.67948L10.2483 3.05176H10.6065L10.8229 3.47795L11.0392 3.05176H11.38L11.0069 3.67948L11.3707 4.29685H11.033L10.8235 3.87674Z" fill="#FFDB1E"/>
<path d="M9.83478 3.05176H10.1289V4.29685H9.83478V3.05176Z" fill="#FFDB1E"/>
<g style="mix-blend-mode:screen">
<path d="M8.593 11.0338L8.52149 12.042C8.50221 12.3465 8.47796 12.6978 8.45931 13.0771C8.45433 13.1721 8.4506 13.267 8.44812 13.3638C8.44812 13.4113 8.44501 13.4594 8.44376 13.5081C8.44252 13.5569 8.44376 13.6074 8.44376 13.6567C8.44376 13.8558 8.43941 14.0592 8.44376 14.2601C8.44811 14.461 8.44749 14.6631 8.45309 14.8616C8.45869 15.0601 8.46242 15.2567 8.46677 15.4461C8.47796 15.8248 8.48978 16.1767 8.50159 16.4811C8.52771 17.09 8.5445 17.4912 8.5445 17.4912C8.5454 17.5074 8.53972 17.5232 8.5287 17.5352C8.51768 17.5473 8.50223 17.5546 8.48573 17.5554C8.46924 17.5563 8.45307 17.5508 8.44076 17.54C8.42846 17.5292 8.42104 17.5141 8.42013 17.4979L8.34862 16.4872C8.32748 16.1828 8.30447 15.8309 8.28085 15.4522C8.27027 15.2622 8.2597 15.0662 8.24851 14.8671C8.23732 14.668 8.22986 14.4646 8.22053 14.2619C8.2112 14.0592 8.20747 13.857 8.20063 13.6573L8.1969 13.5088C8.1969 13.4588 8.1969 13.4089 8.1969 13.359C8.1969 13.2597 8.1969 13.1629 8.1969 13.0673C8.2025 12.6862 8.21493 12.3325 8.22426 12.028C8.24727 11.4192 8.26281 11.0155 8.26281 11.0155C8.26648 10.9738 8.28641 10.935 8.31848 10.9072C8.35055 10.8795 8.3923 10.8649 8.43507 10.8664C8.47785 10.868 8.51837 10.8856 8.54823 10.9157C8.5781 10.9457 8.59502 10.9858 8.59549 11.0277V11.0344L8.593 11.0338Z" fill="#727278"/>
</g>
<path style="mix-blend-mode:screen" d="M6.85126 6.58128C9.65442 5.35568 10.7737 3.03537 11.2127 1.29712C10.0692 1.33365 8.96856 1.58997 8.41451 2.06548C7.52469 2.82654 7.16217 2.955 6.98433 4.57636C6.91406 5.18216 6.87426 5.87137 6.85126 6.58128Z" fill="url(#paint28_linear_2455_3751)"/>
<path style="mix-blend-mode:screen" d="M11.0536 18.8197C10.1984 18.7962 9.34875 18.6765 8.5215 18.4629C8.43037 19.1288 8.40953 19.802 8.45932 20.4721C8.79769 20.6284 9.14957 20.7549 9.51082 20.8502C10.5586 20.1372 10.9559 19.4224 11.0536 18.8197Z" fill="url(#paint29_linear_2455_3751)"/>
</g>
<defs>
<radialGradient id="paint0_radial_2455_3751" cx="0" cy="0" r="1" gradientUnits="userSpaceOnUse" gradientTransform="translate(11.5019 12.1255) scale(8.5606 8.38197)">
<stop stop-color="#FFBA00"/>
<stop offset="1" stop-color="#FFA100"/>
</radialGradient>
<linearGradient id="paint1_linear_2455_3751" x1="9.18311" y1="1.62346" x2="13.8206" y2="1.62346" gradientUnits="userSpaceOnUse">
<stop stop-color="#525956"/>
<stop offset="1" stop-color="#2C2E2E"/>
</linearGradient>
<radialGradient id="paint2_radial_2455_3751" cx="0" cy="0" r="1" gradientUnits="userSpaceOnUse" gradientTransform="translate(11.5019 11.0749) scale(4.8303 19.0126)">
<stop stop-color="#FFE800"/>
<stop offset="1" stop-color="#FFC552"/>
</radialGradient>
<linearGradient id="paint3_linear_2455_3751" x1="8.10675" y1="10.2849" x2="14.8977" y2="10.2849" gradientUnits="userSpaceOnUse">
<stop/>
<stop offset="1" stop-color="#1B1C1C"/>
</linearGradient>
<linearGradient id="paint4_linear_2455_3751" x1="7.57076" y1="6.79558" x2="15.4337" y2="6.79558" gradientUnits="userSpaceOnUse">
<stop/>
<stop offset="1" stop-color="#1B1C1C"/>
</linearGradient>
<linearGradient id="paint5_linear_2455_3751" x1="7.60492" y1="8.44805" x2="15.4001" y2="8.44805" gradientUnits="userSpaceOnUse">
<stop stop-color="#363B39"/>
<stop offset="1" stop-color="#1B1C1C"/>
</linearGradient>
<linearGradient id="paint6_linear_2455_3751" x1="8.20373" y1="19.7073" x2="14.8006" y2="19.7073" gradientUnits="userSpaceOnUse">
<stop/>
<stop offset="1" stop-color="#1B1C1C"/>
</linearGradient>
<linearGradient id="paint7_linear_2455_3751" x1="8.43445" y1="19.7609" x2="14.5699" y2="19.7609" gradientUnits="userSpaceOnUse">
<stop stop-color="#363B39"/>
<stop offset="1" stop-color="#1B1C1C"/>
</linearGradient>
<linearGradient id="paint8_linear_2455_3751" x1="7.30332" y1="10.6453" x2="8.07189" y2="10.6453" gradientUnits="userSpaceOnUse">
<stop stop-color="#363B39"/>
<stop offset="1" stop-color="#1B1C1C"/>
</linearGradient>
<linearGradient id="paint9_linear_2455_3751" x1="14.9324" y1="10.6453" x2="15.701" y2="10.6453" gradientUnits="userSpaceOnUse">
<stop stop-color="#363B39"/>
<stop offset="1" stop-color="#1B1C1C"/>
</linearGradient>
<linearGradient id="paint10_linear_2455_3751" x1="7.35806" y1="16.229" x2="8.15274" y2="16.229" gradientUnits="userSpaceOnUse">
<stop stop-color="#363B39"/>
<stop offset="1" stop-color="#1B1C1C"/>
</linearGradient>
<linearGradient id="paint11_linear_2455_3751" x1="14.8516" y1="16.229" x2="15.6457" y2="16.229" gradientUnits="userSpaceOnUse">
<stop stop-color="#363B39"/>
<stop offset="1" stop-color="#1B1C1C"/>
</linearGradient>
<radialGradient id="paint12_radial_2455_3751" cx="0" cy="0" r="1" gradientUnits="userSpaceOnUse" gradientTransform="translate(8.15587 1.97221) scale(0.721934 0.777556)">
<stop stop-color="white"/>
<stop offset="1" stop-color="#D2D6D5"/>
</radialGradient>
<radialGradient id="paint13_radial_2455_3751" cx="0" cy="0" r="1" gradientUnits="userSpaceOnUse" gradientTransform="translate(14.8485 1.97221) scale(0.721934 0.777556)">
<stop stop-color="white"/>
<stop offset="1" stop-color="#D2D6D5"/>
</radialGradient>
<linearGradient id="paint14_linear_2455_3751" x1="11.4608" y1="7.67357" x2="13.6509" y2="9.26488" gradientUnits="userSpaceOnUse">
<stop stop-color="#363B39"/>
<stop offset="1"/>
</linearGradient>
<linearGradient id="paint15_linear_2455_3751" x1="8.26843" y1="14.3173" x2="14.736" y2="14.3173" gradientUnits="userSpaceOnUse">
<stop stop-color="#FFFA61"/>
<stop offset="1" stop-color="#FFC552"/>
</linearGradient>
<linearGradient id="paint16_linear_2455_3751" x1="10.3583" y1="19.6672" x2="14.2939" y2="26.2653" gradientUnits="userSpaceOnUse">
<stop stop-color="#FFFA61"/>
<stop offset="1" stop-color="#FFC552"/>
</linearGradient>
<linearGradient id="paint17_linear_2455_3751" x1="7.82194" y1="21.4767" x2="15.2643" y2="21.6602" gradientUnits="userSpaceOnUse">
<stop stop-color="#BABABA"/>
<stop offset="0.07" stop-color="#979797"/>
<stop offset="0.17" stop-color="#6F6F6F"/>
<stop offset="0.27" stop-color="#4D4D4D"/>
<stop offset="0.38" stop-color="#313131"/>
<stop offset="0.5" stop-color="#1B1B1B"/>
<stop offset="0.63" stop-color="#0C0C0C"/>
<stop offset="0.78" stop-color="#030303"/>
<stop offset="1"/>
</linearGradient>
<linearGradient id="paint18_linear_2455_3751" x1="15.5505" y1="7.68996" x2="16.3979" y2="9.36486" gradientUnits="userSpaceOnUse">
<stop stop-color="#363B39"/>
<stop offset="1" stop-color="#1B1C1C"/>
</linearGradient>
<radialGradient id="paint19_radial_2455_3751" cx="0" cy="0" r="1" gradientUnits="userSpaceOnUse" gradientTransform="translate(16.4503 8.18681) scale(0.437139 0.428018)">
<stop stop-color="#FFBA00"/>
<stop offset="1" stop-color="#FFA100"/>
</radialGradient>
<linearGradient id="paint20_linear_2455_3751" x1="15.8919" y1="8.33115" x2="17.0006" y2="8.33115" gradientUnits="userSpaceOnUse">
<stop stop-color="#363B39"/>
<stop offset="1" stop-color="#1B1C1C"/>
</linearGradient>
<linearGradient id="paint21_linear_2455_3751" x1="7.15101" y1="7.83311" x2="7.8883" y2="9.48689" gradientUnits="userSpaceOnUse">
<stop stop-color="#363B39"/>
<stop offset="1" stop-color="#1B1C1C"/>
</linearGradient>
<radialGradient id="paint22_radial_2455_3751" cx="0" cy="0" r="1" gradientUnits="userSpaceOnUse" gradientTransform="translate(6.55157 8.17161) scale(0.440249 0.431063)">
<stop stop-color="#FFBA00"/>
<stop offset="1" stop-color="#FFA100"/>
</radialGradient>
<linearGradient id="paint23_linear_2455_3751" x1="6" y1="8.31469" x2="7.10933" y2="8.31469" gradientUnits="userSpaceOnUse">
<stop stop-color="#363B39"/>
<stop offset="1" stop-color="#1B1C1C"/>
</linearGradient>
<linearGradient id="paint24_linear_2455_3751" x1="10.0095" y1="22.919" x2="12.9918" y2="22.919" gradientUnits="userSpaceOnUse">
<stop stop-color="#363B39"/>
<stop offset="1" stop-color="#1B1C1C"/>
</linearGradient>
<linearGradient id="paint25_linear_2455_3751" x1="9.97344" y1="16.8379" x2="11.5699" y2="19.3388" gradientUnits="userSpaceOnUse">
<stop stop-color="#363B39"/>
<stop offset="1"/>
</linearGradient>
<radialGradient id="paint26_radial_2455_3751" cx="0" cy="0" r="1" gradientUnits="userSpaceOnUse" gradientTransform="translate(11.4663 12.1422) scale(2.26665 0.586062)">
<stop stop-color="#FFE800"/>
<stop offset="0.09" stop-color="#CFBC00"/>
<stop offset="0.19" stop-color="#998B00"/>
<stop offset="0.3" stop-color="#6A6000"/>
<stop offset="0.41" stop-color="#443E00"/>
<stop offset="0.52" stop-color="#262300"/>
<stop offset="0.62" stop-color="#110F00"/>
<stop offset="0.73" stop-color="#040400"/>
<stop offset="0.82"/>
</radialGradient>
<radialGradient id="paint27_radial_2455_3751" cx="0" cy="0" r="1" gradientUnits="userSpaceOnUse" gradientTransform="translate(11.4663 12.7633) scale(2.27383 0.472263)">
<stop stop-color="#FFC900"/>
<stop offset="0.09" stop-color="#CFA300"/>
<stop offset="0.19" stop-color="#997800"/>
<stop offset="0.3" stop-color="#6A5300"/>
<stop offset="0.41" stop-color="#443500"/>
<stop offset="0.52" stop-color="#261E00"/>
<stop offset="0.62" stop-color="#110D00"/>
<stop offset="0.73" stop-color="#040300"/>
<stop offset="0.82"/>
</radialGradient>
<linearGradient id="paint28_linear_2455_3751" x1="6.85126" y1="3.93951" x2="11.2127" y2="3.93951" gradientUnits="userSpaceOnUse">
<stop stop-color="#7D7D7D"/>
<stop offset="1"/>
</linearGradient>
<linearGradient id="paint29_linear_2455_3751" x1="8.43445" y1="19.6562" x2="11.0536" y2="19.6562" gradientUnits="userSpaceOnUse">
<stop stop-color="#7D7D7D"/>
<stop offset="1"/>
</linearGradient>
<clipPath id="clip0_2455_3751">
<rect width="11" height="22" fill="white" transform="translate(6 1)"/>
</clipPath>
</defs>
</svg>
