<svg width="24" height="24" viewBox="0 0 24 24" fill="none" xmlns="http://www.w3.org/2000/svg">
<g clip-path="url(#clip0_2478_3804)">
<path d="M13.6143 5.50354H11.6704C11.2051 5.50354 10.8279 5.88004 10.8279 6.34447V10.1251C10.8279 10.5895 11.2051 10.966 11.6704 10.966H13.6143C14.0796 10.966 14.4568 10.5895 14.4568 10.1251V6.34447C14.4568 5.88004 14.0796 5.50354 13.6143 5.50354Z" fill="#FEDA44"/>
<path d="M13.2679 6.47327H11.8987C11.6032 6.47327 11.3636 6.71238 11.3636 7.00735V9.77873C11.3636 10.0737 11.6032 10.3128 11.8987 10.3128H13.2679C13.5635 10.3128 13.803 10.0737 13.803 9.77873V7.00735C13.803 6.71238 13.5635 6.47327 13.2679 6.47327Z" fill="#D8B529"/>
<path d="M15.2896 6.92838L15.6652 6.55355C15.6913 6.52755 15.7223 6.50699 15.7564 6.49307C15.7906 6.47914 15.8271 6.47212 15.864 6.47242C15.9009 6.47272 15.9373 6.48034 15.9712 6.49482C16.0051 6.5093 16.0358 6.53037 16.0615 6.55679L16.5194 7.02743" stroke="#606165" stroke-width="0.358643" stroke-miterlimit="10" stroke-linecap="round"/>
<path d="M8.84058 6.92838L9.21612 6.55355C9.24222 6.52755 9.27324 6.50699 9.30737 6.49307C9.3415 6.47914 9.37807 6.47212 9.41494 6.47242C9.45182 6.47272 9.48826 6.48034 9.52216 6.49482C9.55606 6.5093 9.58674 6.53037 9.61241 6.55679L10.0703 7.02743" stroke="#606165" stroke-width="0.358643" stroke-miterlimit="10" stroke-linecap="round"/>
<path d="M9.24142 8.11566C9.24142 8.11566 12.2561 4.33568 16.0634 8.11566" stroke="#383838" stroke-width="0.717285" stroke-miterlimit="10" stroke-linecap="round"/>
<path d="M12.6427 7.77969C13.2012 7.77969 13.6539 7.28784 13.6539 6.6811C13.6539 6.07437 13.2012 5.58252 12.6427 5.58252C12.0842 5.58252 11.6315 6.07437 11.6315 6.6811C11.6315 7.28784 12.0842 7.77969 12.6427 7.77969Z" fill="#606165"/>
<path d="M10.5989 17.1342V20.6028C10.634 21.4806 11.1944 21.9804 12.4384 21.9881C13.3672 21.97 13.9996 21.6146 14.0547 20.6028L13.9898 17.3012L10.5989 17.1342Z" fill="#111214"/>
<path d="M12.6427 7.79919C13.0697 7.79919 13.4158 7.4537 13.4158 7.02752C13.4158 6.60135 13.0697 6.25586 12.6427 6.25586C12.2157 6.25586 11.8696 6.60135 11.8696 7.02752C11.8696 7.4537 12.2157 7.79919 12.6427 7.79919Z" fill="#BABABC"/>
<path d="M11.7334 4.82516V2.95685C11.7308 2.77737 11.7711 2.59987 11.8508 2.43896C12.0006 2.14893 12.2477 1.99421 12.6116 2.00133C12.7453 2.01168 12.875 2.05133 12.9916 2.11746C13.1082 2.18359 13.2088 2.27458 13.2861 2.38393C13.4222 2.57779 13.4937 2.8095 13.4904 3.04619V4.98829H11.7334V4.82516Z" fill="#4C4C4C"/>
<path d="M10.9907 18.0321L10.9362 21.5797C10.9277 21.8983 11.0154 22.212 11.1879 22.4802C11.4402 22.8608 11.8092 22.9586 12.2957 22.9981C12.7711 22.9903 13.1499 22.7948 13.408 22.3999C13.579 22.1309 13.6678 21.818 13.6636 21.4994V17.834L10.9907 17.5369V18.0321Z" fill="#FFDC44"/>
<path d="M10.9369 17.9569V19.4737C10.9369 19.4737 10.9369 19.4776 10.9369 19.4796C11.0439 20.2286 11.5784 20.6837 12.284 20.6247C13.1026 20.6409 13.6111 20.3179 13.661 19.508V17.9544C13.661 17.9453 13.6574 17.9365 13.6509 17.9301C13.6445 17.9237 13.6357 17.92 13.6266 17.92H10.9674C10.9585 17.921 10.9503 17.9254 10.9446 17.9323C10.9389 17.9392 10.9362 17.948 10.9369 17.9569Z" fill="#664429"/>
<path d="M10.9369 17.6165V18.7442C11.326 19.1973 11.78 19.3423 12.2684 19.3268C12.8904 19.3359 13.2965 19.218 13.6636 18.7235V17.6657L10.9369 17.6165Z" fill="#503520"/>
<path d="M11.7424 4.86526C11.7308 4.20236 11.9785 3.90522 12.4436 3.82947C13.1304 3.74855 13.4917 4.07159 13.4904 4.86526H11.7424Z" fill="#0C0C0C"/>
<path d="M10.1637 13.3458C10.0319 13.3407 9.89988 13.3479 9.76938 13.3672C9.66727 13.3852 9.5707 13.4265 9.4872 13.4878C9.4037 13.5492 9.33553 13.629 9.288 13.721C9.24048 13.813 9.21489 13.9147 9.21322 14.0181C9.21155 14.1216 9.23385 14.2241 9.27838 14.3175L10.5989 17.1342C10.755 17.4774 10.9915 17.778 11.2884 18.0108C11.6378 18.2801 12.0627 18.4338 12.5039 18.4504C13.0228 18.4924 13.4567 18.3138 13.8303 17.9629C14.068 17.7362 14.2574 17.4641 14.3874 17.1627L15.6003 14.4263C15.642 14.3319 15.6631 14.2298 15.6621 14.1266C15.6611 14.0235 15.638 13.9217 15.5944 13.8282C15.5508 13.7347 15.4877 13.6515 15.4093 13.5843C15.3309 13.5171 15.239 13.4673 15.1398 13.4384C15.0749 13.4209 15.0101 13.4041 14.9452 13.3886L10.1637 13.3458Z" fill="#373552"/>
<path d="M11.7801 5.51782H13.5248C13.5248 4.13245 13.1434 4.17711 12.6427 4.13245C11.899 4.14539 11.6114 4.60719 11.7801 5.51782Z" fill="#FFDC44"/>
<path d="M8.04736 8.91778L9.46262 9.12623C9.78692 8.39276 9.45548 7.88069 8.91454 7.85868C8.27762 7.82113 7.85343 8.2348 8.04736 8.91778Z" fill="#FDDAA4"/>
<path d="M15.5115 9.14889L16.9189 8.88994C16.989 8.09173 16.509 7.71431 15.9901 7.86709C15.3752 8.0367 15.1074 8.56496 15.5115 9.14889Z" fill="#FDDAA4"/>
<path d="M9.50801 9.02653C9.6773 11.0379 10.9499 12.6842 12.6064 12.7327C13.781 12.6531 15.3733 11.2833 15.4914 9.05695C15.468 8.62904 15.695 8.38693 16.1607 8.32349C16.6465 8.32349 17.0039 8.51381 16.9935 9.25375C17.0714 10.6404 16.4448 11.8711 15.2682 12.98L14.7215 13.3904L14.2272 16.795C14.2091 17.2177 13.9535 17.4184 13.5138 17.4481H11.6393C11.2164 17.3977 10.9019 17.2539 10.7514 16.962C10.7107 16.8796 10.6855 16.7905 10.6768 16.6991L10.2876 13.3361C8.83606 12.42 8.13557 11.0431 8.01169 9.31331C8.00715 8.77405 8.25037 8.49115 8.7018 8.42253C8.98891 8.3975 9.2077 8.47044 9.35818 8.64134C9.4478 8.75062 9.50028 8.88552 9.50801 9.02653Z" fill="#06C13B"/>
<path d="M16.9702 9.45703C16.9684 9.67777 16.9466 9.8979 16.9053 10.1148C16.8656 10.3323 16.8117 10.5471 16.7438 10.7576C16.6055 11.1801 16.4127 11.5829 16.1704 11.9559C15.9335 12.3354 15.6403 12.6768 15.3007 12.9684C14.9593 13.2549 14.5755 13.4871 14.163 13.6565L14.1533 13.6384C14.5098 13.3882 14.8499 13.1155 15.1716 12.8221C15.3286 12.6745 15.4849 12.5262 15.6295 12.3689C15.7054 12.2919 15.7741 12.209 15.8448 12.1274C15.9155 12.0459 15.9804 11.9591 16.0394 11.8685C16.2921 11.5156 16.4974 11.1312 16.6504 10.7252C16.8103 10.3191 16.9104 9.89187 16.9475 9.45703H16.9702Z" fill="#08822A"/>
<path d="M14.737 13.2791L14.5989 14.4741L14.4517 15.6685L14.3816 16.266C14.3686 16.367 14.3602 16.4602 14.3401 16.5671C14.3203 16.6698 14.2925 16.7709 14.2571 16.8694C14.2203 16.9713 14.1701 17.068 14.1079 17.1568C14.0428 17.2476 13.9584 17.323 13.8608 17.3776C13.7654 17.4287 13.6606 17.46 13.5527 17.4695C13.4501 17.4785 13.3468 17.4746 13.2453 17.4578C13.2427 17.4572 13.2404 17.4557 13.2389 17.4536C13.2373 17.4514 13.2366 17.4488 13.2368 17.4462C13.2373 17.4442 13.2384 17.4424 13.2399 17.441C13.2414 17.4397 13.2432 17.4387 13.2453 17.4384C13.4444 17.4132 13.6422 17.3691 13.7875 17.2604C13.8598 17.2067 13.9201 17.1386 13.9646 17.0604C14.0108 16.9805 14.0472 16.8952 14.0729 16.8066C14.1008 16.7166 14.1235 16.6227 14.1429 16.5276C14.1533 16.4829 14.1604 16.4324 14.1689 16.3832L14.1948 16.235L14.3005 15.6439L14.5048 14.4592L14.7189 13.2758C14.7195 13.2733 14.721 13.2711 14.7232 13.2697C14.7254 13.2682 14.728 13.2677 14.7306 13.2681C14.7328 13.2688 14.7347 13.2703 14.7359 13.2724C14.7371 13.2744 14.7375 13.2768 14.737 13.2791Z" fill="#08822A"/>
<path d="M12.5227 12.1844C13.3688 12.1844 14.0547 11.4998 14.0547 10.6553C14.0547 9.81082 13.3688 9.12622 12.5227 9.12622C11.6766 9.12622 10.9907 9.81082 10.9907 10.6553C10.9907 11.4998 11.6766 12.1844 12.5227 12.1844Z" fill="#5E5F5D"/>
<path d="M12.5227 12.8636C13.4018 12.8636 14.1144 12.1523 14.1144 11.2749C14.1144 10.3975 13.4018 9.68628 12.5227 9.68628C11.6436 9.68628 10.931 10.3975 10.931 11.2749C10.931 12.1523 11.6436 12.8636 12.5227 12.8636Z" fill="#2D2D2D"/>
<path d="M8.05642 9.68496C8.15835 10.0879 8.29061 10.4827 8.45207 10.8658C8.60752 11.2487 8.7993 11.6159 9.02479 11.9624C9.08057 12.0491 9.14218 12.1314 9.2025 12.2136C9.26282 12.2958 9.33222 12.3741 9.39708 12.4492C9.53024 12.6021 9.67346 12.7459 9.82581 12.8797C9.86213 12.9147 9.90234 12.9445 9.9419 12.9775C9.98147 13.0105 10.0204 13.0422 10.0619 13.0694C10.1034 13.0966 10.1436 13.1296 10.1864 13.1561C10.2292 13.1827 10.2727 13.2092 10.3161 13.2364C10.4959 13.3375 10.6843 13.4224 10.8791 13.4902C10.8815 13.4911 10.8835 13.4928 10.8846 13.4952C10.8857 13.4975 10.8858 13.5001 10.885 13.5025C10.8842 13.5044 10.8828 13.5061 10.8811 13.5072C10.8794 13.5084 10.8773 13.509 10.8752 13.509C10.6619 13.492 10.4526 13.4413 10.2552 13.3588C10.057 13.2736 9.87092 13.1626 9.70192 13.0286C9.53282 12.8952 9.38039 12.7419 9.2479 12.5722C9.11657 12.405 8.99695 12.2289 8.88987 12.0453C8.67697 11.6814 8.49911 11.2981 8.35867 10.9007C8.28862 10.7033 8.22895 10.5026 8.17252 10.3006C8.11642 10.0991 8.07053 9.89494 8.03502 9.68884C8.03474 9.68756 8.03471 9.68624 8.03496 9.68496C8.0352 9.68367 8.03569 9.68245 8.03642 9.68136C8.03715 9.68027 8.03809 9.67934 8.03918 9.67863C8.04028 9.67791 8.04151 9.67742 8.0428 9.67719C8.04518 9.67692 8.04758 9.67749 8.04959 9.67879C8.0516 9.68009 8.05309 9.68203 8.05382 9.68431L8.05642 9.68496Z" fill="#08822A"/>
<path d="M9.24985 14.2476C9.55469 14.7693 9.83359 15.3028 10.1092 15.8401C10.2487 16.1075 10.3784 16.3793 10.5127 16.6487L10.7073 17.0565L10.8039 17.2591C10.8201 17.2908 10.835 17.3239 10.8525 17.3543L10.9051 17.4462C11.0509 17.6905 11.2482 17.9001 11.4835 18.0604C11.7187 18.2207 11.9862 18.3279 12.2671 18.3745C12.5509 18.4275 12.8437 18.4033 13.1149 18.3046C13.3925 18.2095 13.65 18.0457 13.9062 17.889C13.6867 18.1026 13.4367 18.2824 13.1642 18.4224C13.0216 18.4905 12.8704 18.5386 12.7147 18.5655C12.5574 18.5902 12.3974 18.5932 12.2393 18.5746C11.9211 18.5414 11.615 18.4346 11.3455 18.2625C11.0759 18.0875 10.8494 17.854 10.6826 17.5796C10.6423 17.5109 10.6055 17.4403 10.5723 17.3679L10.477 17.162L10.2883 16.7516C10.167 16.4765 10.0411 16.2026 9.92439 15.9255C9.68701 15.372 9.45675 14.8153 9.24985 14.2476Z" fill="#231F20"/>
</g>
<defs>
<clipPath id="clip0_2478_3804">
<rect width="9" height="21" fill="white" transform="translate(8 2)"/>
</clipPath>
</defs>
</svg>
